<svg width="17" height="17" viewBox="0 0 17 17" fill="none" xmlns="http://www.w3.org/2000/svg">
<circle cx="8.84375" cy="8.30945" r="7.85" fill="#2D4A41" stroke="#FFD700" stroke-width="0.3"/>
<path d="M13.3672 4.02407V4.97637C13.3672 5.86036 13.0161 6.70814 12.391 7.33321C11.7659 7.95829 10.9181 8.30945 10.0342 8.30945H9.558V8.7856H11.9388V12.1187C11.9388 12.3712 11.8384 12.6135 11.6598 12.7921C11.4813 12.9707 11.239 13.071 10.9865 13.071H7.17723C6.92467 13.071 6.68244 12.9707 6.50385 12.7921C6.32526 12.6135 6.22493 12.3712 6.22493 12.1187V8.7856H8.60569V7.35714C8.60569 6.47316 8.95686 5.62537 9.58193 5.0003C10.207 4.37523 11.0548 4.02407 11.9388 4.02407H13.3672ZM5.98685 3.54791C6.55822 3.54745 7.12134 3.68428 7.6288 3.94687C8.13625 4.20946 8.57319 4.59014 8.90281 5.05684C8.39991 5.71814 8.12822 6.52635 8.12954 7.35714V7.8333H7.89146C6.94434 7.8333 6.036 7.45705 5.36628 6.78733C4.69656 6.11761 4.32031 5.20927 4.32031 4.26214V3.54791H5.98685Z" fill="white"/>
</svg>
